<mxfile host="app.diagrams.net" modified="2023-12-22T22:35:22.559Z" agent="Mozilla/5.0 (Windows NT 10.0; Win64; x64) AppleWebKit/537.36 (KHTML, like Gecko) Chrome/120.0.0.0 Safari/537.36 Edg/120.0.0.0" etag="BNweLgvIWBgUyj8OCxRe" version="22.1.11" type="device">
  <diagram id="a8lE9kFBBYjtpvYg5vlk" name="PÃ¡gina-1">
    <mxGraphModel dx="2224" dy="970" grid="1" gridSize="10" guides="1" tooltips="1" connect="1" arrows="1" fold="1" page="1" pageScale="1" pageWidth="827" pageHeight="1169" math="0" shadow="0">
      <root>
        <mxCell id="0" />
        <mxCell id="1" parent="0" />
        <mxCell id="KNGpQIPSCze-lWew5DJk-8" value="GraphQL - Gatewey&lt;br&gt;" style="outlineConnect=0;dashed=0;verticalLabelPosition=bottom;verticalAlign=top;align=center;html=1;shape=mxgraph.aws3.api_gateway;fillColor=#D9A741;gradientColor=none;" parent="1" vertex="1">
          <mxGeometry x="780" y="362.5" width="35.37" height="43" as="geometry" />
        </mxCell>
        <mxCell id="KNGpQIPSCze-lWew5DJk-11" value="Reverse Proxy - LB" style="outlineConnect=0;dashed=0;verticalLabelPosition=bottom;verticalAlign=top;align=center;html=1;shape=mxgraph.aws3.classic_load_balancer;fillColor=#F58534;gradientColor=none;" parent="1" vertex="1">
          <mxGeometry x="630" y="364" width="38.34" height="40" as="geometry" />
        </mxCell>
        <mxCell id="KNGpQIPSCze-lWew5DJk-15" value="Web App" style="outlineConnect=0;dashed=0;verticalLabelPosition=bottom;verticalAlign=top;align=center;html=1;shape=mxgraph.aws3.instances;fillColor=#F58534;gradientColor=none;" parent="1" vertex="1">
          <mxGeometry x="480" y="244" width="38.1" height="40" as="geometry" />
        </mxCell>
        <mxCell id="KNGpQIPSCze-lWew5DJk-20" value="" style="endArrow=none;html=1;rounded=0;entryX=0.5;entryY=0;entryDx=0;entryDy=0;entryPerimeter=0;exitX=1;exitY=0.5;exitDx=0;exitDy=0;exitPerimeter=0;" parent="1" source="KNGpQIPSCze-lWew5DJk-15" target="KNGpQIPSCze-lWew5DJk-11" edge="1">
          <mxGeometry width="50" height="50" relative="1" as="geometry">
            <mxPoint x="498.10000000000014" y="267" as="sourcePoint" />
            <mxPoint x="530" y="424" as="targetPoint" />
            <Array as="points">
              <mxPoint x="649" y="264" />
            </Array>
          </mxGeometry>
        </mxCell>
        <mxCell id="KNGpQIPSCze-lWew5DJk-22" value="" style="endArrow=none;html=1;rounded=0;exitX=1;exitY=0.5;exitDx=0;exitDy=0;exitPerimeter=0;" parent="1" source="KNGpQIPSCze-lWew5DJk-11" target="KNGpQIPSCze-lWew5DJk-8" edge="1">
          <mxGeometry width="50" height="50" relative="1" as="geometry">
            <mxPoint x="660" y="454" as="sourcePoint" />
            <mxPoint x="770" y="394" as="targetPoint" />
          </mxGeometry>
        </mxCell>
        <mxCell id="KNGpQIPSCze-lWew5DJk-28" value="MySQL&amp;nbsp;- VideoStream" style="html=1;verticalLabelPosition=bottom;align=center;labelBackgroundColor=#ffffff;verticalAlign=top;strokeWidth=2;strokeColor=#0080F0;shadow=0;dashed=0;shape=mxgraph.ios7.icons.data;" parent="1" vertex="1">
          <mxGeometry x="1371.9" y="360.51" width="32.99" height="39" as="geometry" />
        </mxCell>
        <mxCell id="KNGpQIPSCze-lWew5DJk-30" value="" style="endArrow=none;html=1;rounded=0;entryX=-0.023;entryY=0.585;entryDx=0;entryDy=0;entryPerimeter=0;" parent="1" source="0zrGJ4D3XMi7JrYCVs8k-19" target="KNGpQIPSCze-lWew5DJk-28" edge="1">
          <mxGeometry width="50" height="50" relative="1" as="geometry">
            <mxPoint x="1265.9" y="382.47590461770733" as="sourcePoint" />
            <mxPoint x="1331.9" y="382.51" as="targetPoint" />
          </mxGeometry>
        </mxCell>
        <mxCell id="KNGpQIPSCze-lWew5DJk-31" value="Reverse Proxy - LB" style="outlineConnect=0;dashed=0;verticalLabelPosition=bottom;verticalAlign=top;align=center;html=1;shape=mxgraph.aws3.classic_load_balancer;fillColor=#F58534;gradientColor=none;" parent="1" vertex="1">
          <mxGeometry x="1091.9" y="362.51" width="38.34" height="40" as="geometry" />
        </mxCell>
        <mxCell id="KNGpQIPSCze-lWew5DJk-33" value="" style="endArrow=none;html=1;rounded=0;exitX=1;exitY=0.5;exitDx=0;exitDy=0;exitPerimeter=0;" parent="1" source="KNGpQIPSCze-lWew5DJk-31" target="0zrGJ4D3XMi7JrYCVs8k-19" edge="1">
          <mxGeometry width="50" height="50" relative="1" as="geometry">
            <mxPoint x="1141.9" y="382.06" as="sourcePoint" />
            <mxPoint x="1231.9" y="382.51" as="targetPoint" />
          </mxGeometry>
        </mxCell>
        <mxCell id="KNGpQIPSCze-lWew5DJk-34" value="" style="endArrow=none;html=1;rounded=0;entryX=0;entryY=0.5;entryDx=0;entryDy=0;entryPerimeter=0;exitX=1;exitY=0.5;exitDx=0;exitDy=0;exitPerimeter=0;" parent="1" source="MRUA62UXAh5ZukoZEsrq-5" target="KNGpQIPSCze-lWew5DJk-31" edge="1">
          <mxGeometry width="50" height="50" relative="1" as="geometry">
            <mxPoint x="1009.9999999999999" y="392.51" as="sourcePoint" />
            <mxPoint x="1021.9" y="499.51" as="targetPoint" />
          </mxGeometry>
        </mxCell>
        <mxCell id="KNGpQIPSCze-lWew5DJk-38" value="Internet" style="outlineConnect=0;dashed=0;verticalLabelPosition=bottom;verticalAlign=top;align=center;html=1;shape=mxgraph.aws3.internet_gateway;fillColor=#F58534;gradientColor=none;" parent="1" vertex="1">
          <mxGeometry x="360" y="241.49" width="43.13" height="45" as="geometry" />
        </mxCell>
        <mxCell id="KNGpQIPSCze-lWew5DJk-39" value="User" style="outlineConnect=0;dashed=0;verticalLabelPosition=bottom;verticalAlign=top;align=center;html=1;shape=mxgraph.aws3.workspaces;fillColor=#D16A28;gradientColor=#F58435;gradientDirection=north;" parent="1" vertex="1">
          <mxGeometry x="220" y="239.12" width="43.43" height="49.75" as="geometry" />
        </mxCell>
        <mxCell id="KNGpQIPSCze-lWew5DJk-40" value="" style="endArrow=none;html=1;rounded=0;exitX=1;exitY=0.5;exitDx=0;exitDy=0;exitPerimeter=0;entryX=0;entryY=0.5;entryDx=0;entryDy=0;entryPerimeter=0;" parent="1" source="KNGpQIPSCze-lWew5DJk-39" target="KNGpQIPSCze-lWew5DJk-38" edge="1">
          <mxGeometry width="50" height="50" relative="1" as="geometry">
            <mxPoint x="600" y="336.49" as="sourcePoint" />
            <mxPoint x="340" y="286.49" as="targetPoint" />
          </mxGeometry>
        </mxCell>
        <mxCell id="KNGpQIPSCze-lWew5DJk-41" value="" style="endArrow=none;html=1;rounded=0;entryX=0;entryY=0.5;entryDx=0;entryDy=0;entryPerimeter=0;exitX=1;exitY=0.5;exitDx=0;exitDy=0;exitPerimeter=0;" parent="1" source="RhS9SEGooJyK_jqz-KQP-1" target="KNGpQIPSCze-lWew5DJk-11" edge="1">
          <mxGeometry width="50" height="50" relative="1" as="geometry">
            <mxPoint x="490.0000000000001" y="520.5" as="sourcePoint" />
            <mxPoint x="586.87" y="420" as="targetPoint" />
          </mxGeometry>
        </mxCell>
        <mxCell id="0zrGJ4D3XMi7JrYCVs8k-7" value="MongoDB - ChatStream" style="html=1;verticalLabelPosition=bottom;align=center;labelBackgroundColor=#ffffff;verticalAlign=top;strokeWidth=2;strokeColor=#0080F0;shadow=0;dashed=0;shape=mxgraph.ios7.icons.data;" parent="1" vertex="1">
          <mxGeometry x="1361.8999999999999" y="450" width="32.04" height="40" as="geometry" />
        </mxCell>
        <mxCell id="0zrGJ4D3XMi7JrYCVs8k-10" value="Reverse Proxy - LB" style="outlineConnect=0;dashed=0;verticalLabelPosition=bottom;verticalAlign=top;align=center;html=1;shape=mxgraph.aws3.classic_load_balancer;fillColor=#F58534;gradientColor=none;" parent="1" vertex="1">
          <mxGeometry x="1088.4" y="592" width="38.34" height="40" as="geometry" />
        </mxCell>
        <mxCell id="0zrGJ4D3XMi7JrYCVs8k-19" value="Rest -&amp;nbsp; Video" style="shadow=0;dashed=0;html=1;strokeColor=none;fillColor=#EF8F21;labelPosition=center;verticalLabelPosition=bottom;verticalAlign=top;align=center;outlineConnect=0;shape=mxgraph.veeam.2d.restful_apis;" parent="1" vertex="1">
          <mxGeometry x="1231.9" y="365.51" width="34" height="34" as="geometry" />
        </mxCell>
        <mxCell id="4-zbPucV1pvuj0H0U67S-1" value="RTMP Server" style="outlineConnect=0;dashed=0;verticalLabelPosition=bottom;verticalAlign=top;align=center;html=1;shape=mxgraph.aws3.instances;fillColor=#F58534;gradientColor=none;" parent="1" vertex="1">
          <mxGeometry x="1371.3000000000002" y="592" width="38.1" height="40" as="geometry" />
        </mxCell>
        <mxCell id="4-zbPucV1pvuj0H0U67S-10" value="Rest Stream/Video" style="shadow=0;dashed=0;html=1;strokeColor=none;fillColor=#EF8F21;labelPosition=center;verticalLabelPosition=bottom;verticalAlign=top;align=center;outlineConnect=0;shape=mxgraph.veeam.2d.restful_apis;" parent="1" vertex="1">
          <mxGeometry x="1491.66" y="450" width="34" height="34" as="geometry" />
        </mxCell>
        <mxCell id="4-zbPucV1pvuj0H0U67S-14" value="" style="endArrow=none;html=1;rounded=0;entryX=0;entryY=0.5;entryDx=0;entryDy=0;entryPerimeter=0;exitX=1;exitY=0.5;exitDx=0;exitDy=0;exitPerimeter=0;" parent="1" source="RhS9SEGooJyK_jqz-KQP-4" target="4-zbPucV1pvuj0H0U67S-1" edge="1">
          <mxGeometry width="50" height="50" relative="1" as="geometry">
            <mxPoint x="1281.64" y="602" as="sourcePoint" />
            <mxPoint x="1327.64" y="702" as="targetPoint" />
            <Array as="points">
              <mxPoint x="1318.64" y="612" />
            </Array>
          </mxGeometry>
        </mxCell>
        <mxCell id="MRUA62UXAh5ZukoZEsrq-1" value="" style="endArrow=none;html=1;rounded=0;entryX=1.013;entryY=0.56;entryDx=0;entryDy=0;entryPerimeter=0;" parent="1" source="4-zbPucV1pvuj0H0U67S-10" target="KNGpQIPSCze-lWew5DJk-28" edge="1">
          <mxGeometry width="50" height="50" relative="1" as="geometry">
            <mxPoint x="1461.9" y="608.51" as="sourcePoint" />
            <mxPoint x="1511.9" y="558.51" as="targetPoint" />
            <Array as="points">
              <mxPoint x="1508.9" y="381.51" />
            </Array>
          </mxGeometry>
        </mxCell>
        <mxCell id="MRUA62UXAh5ZukoZEsrq-4" value="WebSocket - Chat" style="shadow=0;dashed=0;html=1;strokeColor=none;fillColor=#EF8F21;labelPosition=center;verticalLabelPosition=bottom;verticalAlign=top;align=center;outlineConnect=0;shape=mxgraph.veeam.2d.restful_apis;" parent="1" vertex="1">
          <mxGeometry x="1216.24" y="456" width="34" height="34" as="geometry" />
        </mxCell>
        <mxCell id="MRUA62UXAh5ZukoZEsrq-5" value="Proxy Stream" style="outlineConnect=0;dashed=0;verticalLabelPosition=bottom;verticalAlign=top;align=center;html=1;shape=mxgraph.aws3.instances;fillColor=#F58534;gradientColor=none;" parent="1" vertex="1">
          <mxGeometry x="900" y="363.99" width="38.1" height="40" as="geometry" />
        </mxCell>
        <mxCell id="MRUA62UXAh5ZukoZEsrq-11" value="Reverse Proxy - LB" style="outlineConnect=0;dashed=0;verticalLabelPosition=bottom;verticalAlign=top;align=center;html=1;shape=mxgraph.aws3.classic_load_balancer;fillColor=#F58534;gradientColor=none;" parent="1" vertex="1">
          <mxGeometry x="1091.9" y="453" width="38.34" height="40" as="geometry" />
        </mxCell>
        <mxCell id="MRUA62UXAh5ZukoZEsrq-14" value="" style="endArrow=none;html=1;rounded=0;entryX=0;entryY=0.55;entryDx=0;entryDy=0;entryPerimeter=0;" parent="1" source="MRUA62UXAh5ZukoZEsrq-4" target="0zrGJ4D3XMi7JrYCVs8k-7" edge="1">
          <mxGeometry width="50" height="50" relative="1" as="geometry">
            <mxPoint x="1253.38" y="477" as="sourcePoint" />
            <mxPoint x="1351.9" y="472" as="targetPoint" />
          </mxGeometry>
        </mxCell>
        <mxCell id="MRUA62UXAh5ZukoZEsrq-15" value="" style="endArrow=none;html=1;rounded=0;exitX=1;exitY=0.5;exitDx=0;exitDy=0;exitPerimeter=0;" parent="1" source="MRUA62UXAh5ZukoZEsrq-11" target="MRUA62UXAh5ZukoZEsrq-4" edge="1">
          <mxGeometry width="50" height="50" relative="1" as="geometry">
            <mxPoint x="1171.9" y="523" as="sourcePoint" />
            <mxPoint x="1283.9" y="522" as="targetPoint" />
          </mxGeometry>
        </mxCell>
        <mxCell id="MRUA62UXAh5ZukoZEsrq-16" value="" style="endArrow=none;html=1;rounded=0;entryX=0;entryY=0.5;entryDx=0;entryDy=0;entryPerimeter=0;exitX=1;exitY=0.5;exitDx=0;exitDy=0;exitPerimeter=0;" parent="1" source="MRUA62UXAh5ZukoZEsrq-5" target="MRUA62UXAh5ZukoZEsrq-11" edge="1">
          <mxGeometry width="50" height="50" relative="1" as="geometry">
            <mxPoint x="1021.9" y="501.51" as="sourcePoint" />
            <mxPoint x="1111.9" y="521.51" as="targetPoint" />
            <Array as="points">
              <mxPoint x="1000" y="384" />
              <mxPoint x="1000" y="473" />
            </Array>
          </mxGeometry>
        </mxCell>
        <mxCell id="MRUA62UXAh5ZukoZEsrq-20" value="MySQL - Users" style="html=1;verticalLabelPosition=bottom;align=center;labelBackgroundColor=#ffffff;verticalAlign=top;strokeWidth=2;strokeColor=#0080F0;shadow=0;dashed=0;shape=mxgraph.ios7.icons.data;" parent="1" vertex="1">
          <mxGeometry x="1403.94" y="267.38" width="32.99" height="40" as="geometry" />
        </mxCell>
        <mxCell id="MRUA62UXAh5ZukoZEsrq-21" value="Reverse Proxy - LB" style="outlineConnect=0;dashed=0;verticalLabelPosition=bottom;verticalAlign=top;align=center;html=1;shape=mxgraph.aws3.classic_load_balancer;fillColor=#F58534;gradientColor=none;" parent="1" vertex="1">
          <mxGeometry x="1091.9" y="140" width="38.34" height="40" as="geometry" />
        </mxCell>
        <mxCell id="MRUA62UXAh5ZukoZEsrq-22" value="Rest -&amp;nbsp; Authentication" style="shadow=0;dashed=0;html=1;strokeColor=none;fillColor=#EF8F21;labelPosition=center;verticalLabelPosition=bottom;verticalAlign=top;align=center;outlineConnect=0;shape=mxgraph.veeam.2d.restful_apis;" parent="1" vertex="1">
          <mxGeometry x="1231.9" y="143" width="34" height="34" as="geometry" />
        </mxCell>
        <mxCell id="MRUA62UXAh5ZukoZEsrq-23" value="" style="endArrow=none;html=1;rounded=0;entryX=0.534;entryY=0.008;entryDx=0;entryDy=0;entryPerimeter=0;" parent="1" source="MRUA62UXAh5ZukoZEsrq-22" target="MRUA62UXAh5ZukoZEsrq-20" edge="1">
          <mxGeometry width="50" height="50" relative="1" as="geometry">
            <mxPoint x="1261.9" y="350" as="sourcePoint" />
            <mxPoint x="1421.9" y="210" as="targetPoint" />
            <Array as="points">
              <mxPoint x="1421.9" y="160" />
            </Array>
          </mxGeometry>
        </mxCell>
        <mxCell id="MRUA62UXAh5ZukoZEsrq-25" value="" style="endArrow=none;html=1;rounded=0;exitX=1;exitY=0.5;exitDx=0;exitDy=0;exitPerimeter=0;" parent="1" source="MRUA62UXAh5ZukoZEsrq-21" target="MRUA62UXAh5ZukoZEsrq-22" edge="1">
          <mxGeometry width="50" height="50" relative="1" as="geometry">
            <mxPoint x="1161.9" y="210" as="sourcePoint" />
            <mxPoint x="1211.9" y="160" as="targetPoint" />
          </mxGeometry>
        </mxCell>
        <mxCell id="RhS9SEGooJyK_jqz-KQP-1" value="Mobile App" style="outlineConnect=0;dashed=0;verticalLabelPosition=bottom;verticalAlign=top;align=center;html=1;shape=mxgraph.aws3.workspaces;fillColor=#D16A28;gradientColor=#F58435;gradientDirection=north;" parent="1" vertex="1">
          <mxGeometry x="474.67" y="359.12" width="43.43" height="49.75" as="geometry" />
        </mxCell>
        <mxCell id="RhS9SEGooJyK_jqz-KQP-2" value="" style="endArrow=none;html=1;rounded=0;entryX=0;entryY=0.5;entryDx=0;entryDy=0;entryPerimeter=0;exitX=1;exitY=0.5;exitDx=0;exitDy=0;exitPerimeter=0;" parent="1" source="KNGpQIPSCze-lWew5DJk-38" target="KNGpQIPSCze-lWew5DJk-15" edge="1">
          <mxGeometry width="50" height="50" relative="1" as="geometry">
            <mxPoint x="390" y="330" as="sourcePoint" />
            <mxPoint x="502" y="330" as="targetPoint" />
          </mxGeometry>
        </mxCell>
        <mxCell id="RhS9SEGooJyK_jqz-KQP-4" value="hsl Server" style="outlineConnect=0;dashed=0;verticalLabelPosition=bottom;verticalAlign=top;align=center;html=1;shape=mxgraph.aws3.instances;fillColor=#F58534;gradientColor=none;" parent="1" vertex="1">
          <mxGeometry x="1208.4" y="592" width="38.1" height="40" as="geometry" />
        </mxCell>
        <mxCell id="RhS9SEGooJyK_jqz-KQP-7" value="" style="endArrow=none;html=1;rounded=0;exitX=1;exitY=0.5;exitDx=0;exitDy=0;exitPerimeter=0;entryX=0;entryY=0.5;entryDx=0;entryDy=0;entryPerimeter=0;" parent="1" source="0zrGJ4D3XMi7JrYCVs8k-10" target="RhS9SEGooJyK_jqz-KQP-4" edge="1">
          <mxGeometry width="50" height="50" relative="1" as="geometry">
            <mxPoint x="1218.0600000000002" y="622" as="sourcePoint" />
            <mxPoint x="1290.0600000000002" y="622" as="targetPoint" />
          </mxGeometry>
        </mxCell>
        <mxCell id="RhS9SEGooJyK_jqz-KQP-9" value="" style="endArrow=none;html=1;rounded=0;exitX=0.5;exitY=0;exitDx=0;exitDy=0;exitPerimeter=0;" parent="1" source="RhS9SEGooJyK_jqz-KQP-4" target="4-zbPucV1pvuj0H0U67S-10" edge="1">
          <mxGeometry width="50" height="50" relative="1" as="geometry">
            <mxPoint x="1368.67" y="522" as="sourcePoint" />
            <mxPoint x="1450.67" y="522" as="targetPoint" />
            <Array as="points">
              <mxPoint x="1227" y="561.49" />
              <mxPoint x="1331.66" y="562" />
              <mxPoint x="1451.66" y="562" />
              <mxPoint x="1508.9" y="562" />
            </Array>
          </mxGeometry>
        </mxCell>
        <mxCell id="eWcDsaA9tVF2v3sWVsoL-2" value="" style="endArrow=none;html=1;rounded=0;entryX=0.023;entryY=0.498;entryDx=0;entryDy=0;entryPerimeter=0;" edge="1" parent="1" source="eWcDsaA9tVF2v3sWVsoL-3" target="MRUA62UXAh5ZukoZEsrq-20">
          <mxGeometry width="50" height="50" relative="1" as="geometry">
            <mxPoint x="1309.89" y="287.07" as="sourcePoint" />
            <mxPoint x="1384.89" y="287.07" as="targetPoint" />
          </mxGeometry>
        </mxCell>
        <mxCell id="eWcDsaA9tVF2v3sWVsoL-3" value="GraphQL -&amp;nbsp; Profile" style="shadow=0;dashed=0;html=1;strokeColor=none;fillColor=#EF8F21;labelPosition=center;verticalLabelPosition=bottom;verticalAlign=top;align=center;outlineConnect=0;shape=mxgraph.veeam.2d.restful_apis;" vertex="1" parent="1">
          <mxGeometry x="1250" y="271" width="34" height="34" as="geometry" />
        </mxCell>
        <mxCell id="eWcDsaA9tVF2v3sWVsoL-4" value="Reverse Proxy - LB" style="outlineConnect=0;dashed=0;verticalLabelPosition=bottom;verticalAlign=top;align=center;html=1;shape=mxgraph.aws3.classic_load_balancer;fillColor=#F58534;gradientColor=none;" vertex="1" parent="1">
          <mxGeometry x="1091.9" y="268" width="38.34" height="40" as="geometry" />
        </mxCell>
        <mxCell id="eWcDsaA9tVF2v3sWVsoL-5" value="" style="endArrow=none;html=1;rounded=0;exitX=1;exitY=0.5;exitDx=0;exitDy=0;exitPerimeter=0;" edge="1" parent="1" source="eWcDsaA9tVF2v3sWVsoL-4" target="eWcDsaA9tVF2v3sWVsoL-3">
          <mxGeometry width="50" height="50" relative="1" as="geometry">
            <mxPoint x="1132.47" y="311" as="sourcePoint" />
            <mxPoint x="1253.47" y="311" as="targetPoint" />
          </mxGeometry>
        </mxCell>
        <mxCell id="eWcDsaA9tVF2v3sWVsoL-6" value="" style="endArrow=none;html=1;rounded=0;entryX=0;entryY=0.5;entryDx=0;entryDy=0;entryPerimeter=0;" edge="1" parent="1" source="KNGpQIPSCze-lWew5DJk-8" target="MRUA62UXAh5ZukoZEsrq-5">
          <mxGeometry width="50" height="50" relative="1" as="geometry">
            <mxPoint x="827" y="440" as="sourcePoint" />
            <mxPoint x="947" y="440" as="targetPoint" />
          </mxGeometry>
        </mxCell>
        <mxCell id="eWcDsaA9tVF2v3sWVsoL-7" value="" style="endArrow=none;html=1;rounded=0;exitX=1;exitY=0.5;exitDx=0;exitDy=0;exitPerimeter=0;entryX=0;entryY=0.5;entryDx=0;entryDy=0;entryPerimeter=0;" edge="1" parent="1" source="MRUA62UXAh5ZukoZEsrq-5" target="0zrGJ4D3XMi7JrYCVs8k-10">
          <mxGeometry width="50" height="50" relative="1" as="geometry">
            <mxPoint x="988.67" y="600" as="sourcePoint" />
            <mxPoint x="1069.67" y="600" as="targetPoint" />
            <Array as="points">
              <mxPoint x="1000" y="384" />
              <mxPoint x="1000" y="612" />
            </Array>
          </mxGeometry>
        </mxCell>
        <mxCell id="eWcDsaA9tVF2v3sWVsoL-8" value="" style="endArrow=none;html=1;rounded=0;exitX=1;exitY=0.5;exitDx=0;exitDy=0;exitPerimeter=0;entryX=0;entryY=0.5;entryDx=0;entryDy=0;entryPerimeter=0;" edge="1" parent="1" source="MRUA62UXAh5ZukoZEsrq-5" target="eWcDsaA9tVF2v3sWVsoL-4">
          <mxGeometry width="50" height="50" relative="1" as="geometry">
            <mxPoint x="930" y="263.33" as="sourcePoint" />
            <mxPoint x="1050" y="263.33" as="targetPoint" />
            <Array as="points">
              <mxPoint x="1000" y="384" />
              <mxPoint x="1000" y="288" />
            </Array>
          </mxGeometry>
        </mxCell>
        <mxCell id="eWcDsaA9tVF2v3sWVsoL-9" value="" style="endArrow=none;html=1;rounded=0;exitX=1;exitY=0.5;exitDx=0;exitDy=0;exitPerimeter=0;entryX=0;entryY=0.5;entryDx=0;entryDy=0;entryPerimeter=0;" edge="1" parent="1" source="MRUA62UXAh5ZukoZEsrq-5" target="MRUA62UXAh5ZukoZEsrq-21">
          <mxGeometry width="50" height="50" relative="1" as="geometry">
            <mxPoint x="930" y="159.33" as="sourcePoint" />
            <mxPoint x="1050" y="159.33" as="targetPoint" />
            <Array as="points">
              <mxPoint x="1000" y="384" />
              <mxPoint x="1000" y="160" />
            </Array>
          </mxGeometry>
        </mxCell>
      </root>
    </mxGraphModel>
  </diagram>
</mxfile>
